# xmcd
#
# Track frame offsets: 
#        150
#        11392
#        24393
#        38139
#        53266
#        65795
#        79473
#        93421
#        107008
#        120921
#        134591
#        147830
#        162099
#        176237
#        188694
#        203524
#        219140
#        231233
#        244723
#        256089
#        268394
#        282754
#        296206
#        309723
#
# Disc length: 4292 seconds
#
# Revision: 3
# Processed by: cddbd v1.5.2PL0 Copyright (c) Steve Scherf et al.
# Submitted via: ExactAudioCopyFreeDBPlugin 1.0
#
DISCID=5410c218
DTITLE=Big Joe Turner - Big Joe Turner:  All the Classic Hits, 1938-19
DTITLE=52 [JSP Records]
DYEAR=2003
DGENRE=Rhythm and Blues
TTITLE0=Blues in the Night
TTITLE1=Cry Baby Blues
TTITLE2=It's the Same Old Story
TTITLE3=Rebecca
TTITLE4=Little Bittie Gal's Blues
TTITLE5=I Got a Gal for Every Day of the Week
TTITLE6=S.K. Blues, Part 1
TTITLE7=S.K. Blues, Part 2
TTITLE8=Johnson and Turner Blues
TTITLE9=Watch That Jive
TTITLE10=Howlin' Winds
TTITLE11=Low Down Dog
TTITLE12=Miss Brown Blues
TTITLE13=I Got My Discharge Papers
TTITLE14=My Gal's a Jockey
TTITLE15=I'm Still in the Dark
TTITLE16=I Got Love for Sale
TTITLE17=Sunday Morning Blues
TTITLE18=Mad Blues
TTITLE19=It's a Lowdown Dirty Shame (Playboy Blues)
TTITLE20=I'm Still in the Dark
TTITLE21=Miss Brown Blues
TTITLE22=Sally-Zu-Zazz
TTITLE23=Rock of Gibraltar
EXTD=
EXTT0=
EXTT1=
EXTT2=
EXTT3=
EXTT4=
EXTT5=
EXTT6=
EXTT7=
EXTT8=
EXTT9=
EXTT10=
EXTT11=
EXTT12=
EXTT13=
EXTT14=
EXTT15=
EXTT16=
EXTT17=
EXTT18=
EXTT19=
EXTT20=
EXTT21=
EXTT22=
EXTT23=
PLAYORDER=
